# xmcd
#
# Track frame offsets: 
#        150
#        9369
#        25993
#        36015
#        52359
#        68150
#        93310
#        105476
#        107120
#        122108
#        137811
#        147663
#
# Disc length: 2057 seconds
#
# Revision: 0
# Processed by: cddbd v1.5.2PL0 Copyright (c) Steve Scherf et al.
# Submitted via: ExactAudioCopyFreeDBPlugin 1.0
#
DISCID=ab08070c
DTITLE=Rasputin's Stash - Rasputin's Stash
DYEAR=1971
DGENRE=Funk
TTITLE0=Your Love Is Certified
TTITLE1=I'd Like To Know You Better
TTITLE2=What's On Your Mind
TTITLE3=Take Me On Back
TTITLE4=Mr. Cool
TTITLE5=You Better Think
TTITLE6=Freaks Prayer
TTITLE7=Prelude
TTITLE8=Dookey Shoe
TTITLE9=You Are My Flower
TTITLE10=I Want To Say You're Welcome
TTITLE11=Epilogue
EXTD=
EXTT0=
EXTT1=
EXTT2=
EXTT3=
EXTT4=
EXTT5=
EXTT6=
EXTT7=
EXTT8=
EXTT9=
EXTT10=
EXTT11=
PLAYORDER=
